<svg width="190" height="124" viewBox="0 0 190 124" fill="none" xmlns="http://www.w3.org/2000/svg">
<path d="M77.1512 2.01587C76.4395 1.22108 75.4905 0.651722 74.411 0.367024C73.118 0.0348772 71.6826 0.200953 70.4015 0.82966C69.0966 1.45837 68.7408 1.94471 65.1702 7.95894C63.3434 11.0194 61.7538 13.819 61.6115 14.1867C61.4098 14.7087 61.3623 15.112 61.3623 16.2626C61.3623 17.5319 61.3979 17.7691 61.6708 18.4097C62.1215 19.4892 78.3612 45.9423 78.9068 46.488C80.532 48.1368 83.5569 47.9233 84.9448 46.0728C85.6328 45.1475 92.9875 32.4073 93.2129 31.7549C93.545 30.7466 93.5332 29.3231 93.1773 28.3029C92.7977 27.2235 78.029 3.00044 77.1512 2.01587Z" fill="#8C10B9"/>
<path d="M129.666 1.77863C128.99 1.09061 127.922 0.521232 126.926 0.319571C125.063 -0.0718882 123.047 0.568674 121.801 1.94471C121.327 2.4548 115.906 11.6244 99.4525 39.762C87.5071 60.1772 77.6613 77.1048 77.5783 77.3658C77.341 78.0894 77.2698 79.418 77.424 80.1772C77.7443 81.7074 78.978 83.3919 80.2592 84.0443C81.5047 84.673 80.7455 84.6493 97.4952 84.6493C112.347 84.6493 113.035 84.6374 113.723 84.4239C114.731 84.1036 115.384 83.7003 116.119 82.8937C116.629 82.348 119.749 77.0218 131.125 57.2946C139.025 43.6054 145.597 32.0989 145.716 31.743C146.024 30.8296 146.001 29.1926 145.668 28.2674C145.526 27.8759 142.003 21.8972 137.851 14.9815C131.896 5.07637 130.152 2.25313 129.666 1.77863Z" fill="#8C10B9"/>
<path d="M59.2153 31.6481C58.7526 31.0431 57.8155 30.367 57.0682 30.0823C56.1666 29.7383 54.7075 29.6671 53.8416 29.9044C52.857 30.1772 52.0741 30.6635 51.4335 31.3871C50.7336 32.1701 24.5059 76.2982 24.1381 77.2946C23.4264 79.2757 23.9602 81.5176 25.5142 83.036C26.2852 83.7834 27.2105 84.3172 28.1002 84.5188C28.8119 84.6849 59.7491 84.6849 60.4608 84.5188C61.4335 84.2934 62.2876 83.8071 63.0824 83.0004C63.7704 82.3006 64.4466 81.1855 69.5711 72.4311C72.7147 67.0455 75.3837 62.348 75.5023 61.9921C75.8226 61.0076 75.7989 59.3112 75.4312 58.3266C75.1821 57.6505 60.01 32.7039 59.2153 31.6481Z" fill="#8C10B9"/>
<path d="M160.069 51.7905C154.992 43.4038 154.826 43.1784 153.676 42.8344C152.477 42.4785 151.279 42.7632 150.485 43.5698C150.058 44.0087 141.125 58.5876 140.354 60.0942C139.797 61.1974 139.559 62.2175 139.559 63.5342C139.559 64.7205 139.678 65.3611 140.069 66.405C140.437 67.4133 149.927 83.2021 150.496 83.7834C151.623 84.9222 153.723 84.9459 154.862 83.8427C155.135 83.5698 157.163 80.3077 160.129 75.3373C162.786 70.9008 165.04 67.1048 165.135 66.8913C165.538 66.1203 165.846 64.6849 165.846 63.5936C165.846 62.3955 165.621 61.3516 165.111 60.2721C164.933 59.8806 162.667 56.0609 160.069 51.7905Z" fill="#8C10B9"/>
<path d="M15.3187 94.6116C15.1291 94.2376 14.8269 93.8944 14.5964 93.7868C14.3915 93.6998 14.2224 93.6895 11.7431 93.6946C10.2422 93.6997 9.03333 93.7202 8.936 93.7459C8.7311 93.8073 8.4135 94.1249 8.21372 94.4784C8.10614 94.6679 6.98943 98.4637 4.16179 108.263C2.01545 115.701 0.248192 121.879 0.232825 121.991C0.176477 122.458 0.437722 122.867 0.868015 122.985C1.1139 123.057 4.97628 123.062 5.15044 122.996C5.36047 122.914 5.69343 122.524 5.87784 122.145C5.99054 121.904 6.99969 118.483 8.88478 111.941C10.6879 105.676 11.7329 102.126 11.7534 102.183C11.7739 102.229 13.075 106.716 14.6425 112.156C17.6699 122.657 17.5777 122.365 18.0029 122.765C18.0951 122.857 18.2231 122.955 18.2846 122.985C18.3615 123.026 19.2169 123.042 21.143 123.042C23.4533 123.042 23.9092 123.031 24.0321 122.965C24.237 122.862 24.5597 122.478 24.7236 122.155C24.7954 122.012 26.1375 117.438 27.705 112.003C29.2725 106.562 30.5582 102.111 30.5633 102.106C30.5736 102.096 31.8645 106.557 33.4371 112.018C35.0968 117.776 36.3518 122.048 36.4286 122.191C36.5977 122.514 36.9511 122.908 37.1407 122.985C37.2431 123.026 37.8629 123.042 39.3536 123.031C41.3411 123.016 41.4385 123.011 41.6331 122.908C41.8841 122.775 42.0685 122.453 42.0685 122.13C42.0685 121.904 34.3796 95.1238 34.1901 94.6884C34.144 94.5757 34.0057 94.3503 33.8827 94.1864C33.5037 93.669 33.6573 93.6895 30.5685 93.6895C27.4796 93.6895 27.6332 93.669 27.2542 94.1864C27.1312 94.3503 26.9929 94.5757 26.9468 94.6884C26.8956 94.8011 25.5894 99.2935 24.0372 104.677C20.8203 115.834 21.1635 114.651 21.143 114.63C21.1328 114.62 19.847 110.164 18.2795 104.729C16.712 99.2884 15.3801 94.7396 15.3187 94.6116Z" fill="#8C10B9"/>
<path d="M65.4939 94.463C65.3248 94.1761 65.038 93.8585 64.8587 93.7612C64.7357 93.6998 64.1825 93.6895 61.4215 93.6895C58.2916 93.6895 58.1175 93.6946 57.9689 93.7868C57.7742 93.9047 57.5386 94.1864 57.3696 94.504C57.2978 94.632 54.8954 100.835 52.0216 108.289C47.6009 119.773 46.8069 121.879 46.8069 122.094C46.8069 122.447 46.9606 122.724 47.2423 122.873C47.4626 122.99 47.4728 122.99 49.5576 122.99H49.5577C51.3045 122.99 51.6784 122.98 51.7962 122.914C51.9807 122.821 52.2573 122.504 52.4263 122.186C52.5185 122.012 60.4021 101.588 61.3805 98.9913C61.4369 98.8479 61.7442 99.6316 65.8832 110.389C68.3267 116.741 70.3705 122.022 70.4218 122.12C70.5806 122.432 70.8572 122.775 71.0313 122.883C71.1953 122.985 71.2721 122.99 73.3006 122.99H73.3008C75.3701 122.99 75.3957 122.99 75.6211 122.873C75.9387 122.714 76.0924 122.442 76.0668 122.068C76.0565 121.838 75.0782 119.256 70.8367 108.237C67.9681 100.784 65.5656 94.5859 65.4939 94.463Z" fill="#8C10B9"/>
<path d="M132.292 94.463C132.123 94.171 131.836 93.8534 131.657 93.7612C131.534 93.6998 130.98 93.6895 128.214 93.6895H124.915L124.71 93.8381C124.598 93.92 124.418 94.1198 124.311 94.2837C124.157 94.5142 122.836 97.9002 118.866 108.212C115.982 115.706 113.61 121.91 113.594 121.997C113.559 122.212 113.661 122.519 113.83 122.704C114.091 122.99 114.112 122.99 116.381 122.99C118.338 122.99 118.481 122.985 118.63 122.893C118.855 122.755 119.137 122.396 119.311 122.012C119.398 121.833 121.427 116.577 123.829 110.338C126.227 104.098 128.204 98.9657 128.224 98.9298C128.24 98.8991 130.145 103.786 132.456 109.79C134.761 115.798 136.774 121.028 136.928 121.418C137.235 122.196 137.522 122.673 137.798 122.862L137.988 122.99H140.088H140.088C142.168 122.99 142.194 122.99 142.419 122.873C142.701 122.729 142.813 122.575 142.875 122.248L142.921 121.991L137.675 108.34C134.786 100.83 132.363 94.5859 132.292 94.463Z" fill="#8C10B9"/>
<path d="M162.571 94.9701C162.376 94.6423 162.074 94.3349 161.869 94.2581C161.639 94.171 156.424 94.1864 156.224 94.2735C156.03 94.3554 155.65 94.7806 155.492 95.0777C155.43 95.2006 153.612 101.43 151.455 108.919C147.997 120.906 147.536 122.56 147.562 122.76C147.608 123.057 147.777 123.303 148.028 123.426C148.223 123.523 148.351 123.528 150.297 123.544C152.152 123.559 152.377 123.549 152.541 123.472C152.761 123.369 153.069 122.996 153.243 122.622C153.315 122.473 154.646 117.919 156.204 112.505C157.766 107.085 159.052 102.654 159.067 102.654C159.083 102.654 160.368 107.085 161.931 112.505C163.488 117.919 164.82 122.473 164.892 122.622C164.958 122.77 165.107 123.001 165.214 123.134C165.557 123.574 165.404 123.554 168.493 123.554C170.741 123.554 171.238 123.544 171.351 123.482C171.556 123.375 171.848 123.052 172.017 122.745C172.114 122.565 173.082 119.287 175.029 112.54C176.894 106.066 177.908 102.639 177.933 102.695C177.954 102.741 179.25 107.218 180.812 112.633C182.605 118.857 183.707 122.581 183.794 122.739C183.865 122.878 184.004 123.083 184.096 123.19C184.414 123.559 184.388 123.554 186.575 123.554C187.876 123.554 188.604 123.533 188.763 123.498C189.09 123.41 189.316 123.17 189.393 122.826L189.449 122.555L185.53 108.955C183.317 101.276 181.55 95.2365 181.473 95.088C181.299 94.7345 180.961 94.3606 180.751 94.2735C180.618 94.2171 180.054 94.2018 177.908 94.2018C175.316 94.2018 175.229 94.2069 175.019 94.3093C174.799 94.4118 174.614 94.6167 174.378 95.006C174.291 95.1597 173.308 98.4791 171.382 105.164C169.809 110.63 168.503 115.102 168.488 115.102C168.472 115.102 167.171 110.635 165.598 105.174C163.339 97.3572 162.699 95.1904 162.571 94.9701Z" fill="#8C10B9"/>
<path d="M103.821 118.319L96.1113 106.644L88.4019 94.9701L85.021 94.9753C81.5274 94.9753 81.4147 94.9804 81.1688 95.1802C81.1227 95.2211 81.0459 95.3441 80.9947 95.4568C80.9025 95.6514 80.8973 96.2149 80.8973 108.985V122.309L81.0152 122.529C81.092 122.673 81.2047 122.791 81.3327 122.857C81.5274 122.96 81.635 122.965 83.2281 122.98C85.021 123.001 85.3386 122.97 85.5896 122.775C85.9174 122.514 85.8867 123.441 85.9174 110.958L85.943 99.6163L93.6576 111.291L101.367 122.965H104.799H104.799C108.175 122.965 108.231 122.965 108.431 122.857C108.554 122.796 108.682 122.668 108.749 122.55L108.866 122.35L108.851 108.919L108.841 95.4875L108.733 95.3441C108.672 95.2672 108.549 95.1545 108.451 95.0982C108.288 95.0009 108.17 94.9958 106.484 94.9804C104.61 94.965 104.441 94.9753 104.179 95.1853C103.846 95.4465 103.877 94.5091 103.846 106.993L103.821 118.319Z" fill="#8C10B9"/>
</svg>
